<svg width="32" height="32" viewBox="0 0 32 32" fill="none" xmlns="http://www.w3.org/2000/svg">
<g clipPath="url(#clip0_5_2143)">
<rect width="32" height="32" fill="#F6941C"/>
<g clipPath="url(#clip1_5_2143)">
<path d="M11.332 13.6751C11.332 11.2765 13.4214 9.33203 15.9987 9.33203C18.576 9.33203 20.6654 11.2765 20.6654 13.6751C20.6654 16.0549 19.1759 18.832 16.8521 19.8251C16.3103 20.0566 15.687 20.0566 15.1453 19.8251C12.8215 18.832 11.332 16.0549 11.332 13.6751Z" stroke="#FEFEFE" strokeWidth="1.5"/>
<path d="M17.3346 14.0013C17.3346 14.7377 16.7377 15.3346 16.0013 15.3346C15.2649 15.3346 14.668 14.7377 14.668 14.0013C14.668 13.2649 15.2649 12.668 16.0013 12.668C16.7377 12.668 17.3346 13.2649 17.3346 14.0013Z" stroke="#FEFEFE" strokeWidth="1.5"/>
<path d="M21.9724 18.332C22.416 18.7337 22.6654 19.1864 22.6654 19.6654C22.6654 21.3222 19.6806 22.6654 15.9987 22.6654C12.3168 22.6654 9.33203 21.3222 9.33203 19.6654C9.33203 19.1864 9.58144 18.7337 10.025 18.332" stroke="#FEFEFE" strokeWidth="1.5" strokeLinecap="round"/>
</g>
</g>
<defs>
<clipPath id="clip0_5_2143">
<rect width="32" height="32" rx="16" fill="white"/>
</clipPath>
<clipPath id="clip1_5_2143">
<rect width="16" height="16" fill="white" transform="translate(8 8)"/>
</clipPath>
</defs>
</svg>
