<svg width="32" viewBox="0 0 32 32" fill="none" xmlns="http://www.w3.org/2000/svg">
<rect width="32" height="32" rx="16" fill="#F6941C"/>
<g clipPath="url(#clip0_1_1685)">
<path fill-rule="evenodd" clip-rule="evenodd" d="M12.6654 8.83203C12.9415 8.83203 13.1654 9.05589 13.1654 9.33203V10.4987H13.332C13.342 10.4987 13.3519 10.4987 13.3619 10.4987C13.6504 10.4987 13.915 10.4986 14.1302 10.5276C14.3672 10.5594 14.6176 10.6344 14.8237 10.8404C15.0297 11.0464 15.1046 11.2969 15.1365 11.5339C15.1654 11.7491 15.1654 12.0137 15.1654 12.3022C15.1654 12.3121 15.1654 12.3221 15.1654 12.332V13.2534C15.2099 13.2887 15.2532 13.3272 15.2951 13.369C15.5987 13.6726 15.7225 14.0505 15.7788 14.469C15.8176 14.758 15.8281 15.1017 15.831 15.4987H16.1654L16.1654 13.1387C16.1653 12.2998 16.1653 11.614 16.2424 11.0908C16.3224 10.5482 16.5005 10.0637 16.9544 9.74917C17.4083 9.43462 17.9245 9.43793 18.4606 9.55357C18.9776 9.66509 19.6197 9.9059 20.4052 10.2005L20.4691 10.2244C20.8661 10.3733 21.2021 10.4993 21.466 10.6332C21.7466 10.7757 21.9893 10.9478 22.1722 11.2118C22.3552 11.4758 22.4311 11.7634 22.4659 12.0762C22.4987 12.3703 22.4987 12.7291 22.4987 13.1531V22.1654H22.6654C22.9415 22.1654 23.1654 22.3892 23.1654 22.6654C23.1654 22.9415 22.9415 23.1654 22.6654 23.1654H9.33203C9.05589 23.1654 8.83203 22.9415 8.83203 22.6654C8.83203 22.3892 9.05589 22.1654 9.33203 22.1654H9.4987L9.4987 15.964C9.49868 15.365 9.49866 14.8656 9.55197 14.469C9.60824 14.0505 9.73202 13.6726 10.0357 13.369C10.0775 13.3272 10.1208 13.2887 10.1654 13.2534V12.332C10.1654 12.3221 10.1654 12.3121 10.1654 12.3022C10.1653 12.0137 10.1653 11.7491 10.1942 11.5339C10.2261 11.2969 10.3011 11.0464 10.5071 10.8404C10.7131 10.6344 10.9636 10.5594 11.2006 10.5276C11.4158 10.4986 11.6803 10.4987 11.9689 10.4987C11.9788 10.4987 11.9887 10.4987 11.9987 10.4987H12.1654V9.33203C12.1654 9.05589 12.3892 8.83203 12.6654 8.83203ZM11.1654 12.8814C11.557 12.832 12.0465 12.832 12.6307 12.832H12.7C13.2842 12.832 13.7737 12.832 14.1654 12.8814V12.332C14.1654 12.0036 14.1643 11.8076 14.1454 11.6671C14.1368 11.6028 14.1266 11.5705 14.1206 11.556C14.1192 11.5526 14.1181 11.5504 14.1175 11.5491L14.1165 11.5475L14.1149 11.5466C14.1136 11.5459 14.1114 11.5449 14.1081 11.5435C14.0935 11.5375 14.0613 11.5273 13.9969 11.5186C13.8564 11.4998 13.6604 11.4987 13.332 11.4987H11.9987C11.6703 11.4987 11.4743 11.4998 11.3338 11.5186C11.2694 11.5273 11.2372 11.5375 11.2227 11.5435C11.2193 11.5449 11.2171 11.5459 11.2158 11.5466L11.2142 11.5475L11.2133 11.5491C11.2126 11.5504 11.2115 11.5526 11.2101 11.556C11.2042 11.5705 11.194 11.6028 11.1853 11.6671C11.1664 11.8076 11.1654 12.0036 11.1654 12.332V12.8814ZM10.4987 22.1654H12.1654L12.1654 18.6307C12.1653 18.0317 12.1653 17.5322 12.2186 17.1357C12.2749 16.7172 12.3987 16.3393 12.7023 16.0357C13.006 15.732 13.3838 15.6082 13.8024 15.552C14.0911 15.5132 14.4343 15.5026 14.8308 15.4998C14.828 15.1196 14.8187 14.8328 14.7877 14.6023C14.7463 14.2947 14.6748 14.163 14.588 14.0761C14.5011 13.9892 14.3694 13.9177 14.0618 13.8764C13.7397 13.8331 13.308 13.832 12.6654 13.832C12.0227 13.832 11.591 13.8331 11.269 13.8764C10.9613 13.9177 10.8297 13.9892 10.7428 14.0761C10.6559 14.163 10.5844 14.2947 10.5431 14.6023C10.4998 14.9243 10.4987 15.356 10.4987 15.9987V22.1654ZM13.1654 22.1654H18.832V18.6654C18.832 18.0227 18.831 17.591 18.7877 17.269C18.7463 16.9613 18.6748 16.8297 18.588 16.7428C18.5011 16.6559 18.3694 16.5844 18.0618 16.5431C17.7397 16.4998 17.308 16.4987 16.6654 16.4987H15.332C14.6894 16.4987 14.2576 16.4998 13.9356 16.5431C13.628 16.5844 13.4963 16.6559 13.4094 16.7428C13.3226 16.8297 13.2511 16.9613 13.2097 17.269C13.1664 17.591 13.1654 18.0227 13.1654 18.6654V22.1654ZM19.832 22.1654H21.4987V13.18C21.4987 12.7219 21.498 12.4192 21.4721 12.187C21.4476 11.9672 21.4048 11.86 21.3503 11.7814C21.2958 11.7028 21.2105 11.625 21.0133 11.5249C20.8049 11.4191 20.5218 11.3122 20.0928 11.1513C19.2591 10.8387 18.6862 10.6252 18.2498 10.5311C17.824 10.4392 17.644 10.488 17.524 10.5711C17.4041 10.6542 17.2953 10.8057 17.2318 11.2366C17.1667 11.6782 17.1654 12.2896 17.1654 13.18V15.4997C17.5624 15.5026 17.906 15.5131 18.195 15.552C18.6135 15.6082 18.9914 15.732 19.2951 16.0357C19.5987 16.3393 19.7225 16.7172 19.7788 17.1357C19.8321 17.5322 19.8321 18.0317 19.832 18.6307L19.832 22.1654ZM11.2142 11.5475C11.2144 11.5473 11.2145 11.5473 11.2142 11.5475C11.2139 11.5478 11.214 11.5478 11.2142 11.5475ZM14.1654 17.9987C14.1654 17.7226 14.3892 17.4987 14.6654 17.4987H17.332C17.6082 17.4987 17.832 17.7226 17.832 17.9987C17.832 18.2748 17.6082 18.4987 17.332 18.4987H14.6654C14.3892 18.4987 14.1654 18.2748 14.1654 17.9987ZM14.1654 19.9987C14.1654 19.7226 14.3892 19.4987 14.6654 19.4987H17.332C17.6082 19.4987 17.832 19.7226 17.832 19.9987C17.832 20.2748 17.6082 20.4987 17.332 20.4987H14.6654C14.3892 20.4987 14.1654 20.2748 14.1654 19.9987Z" fill="#FEFEFE"/>
</g>
<defs>
<clipPath id="clip0_1_1685">
<rect x="8" y="8" width="16" height="16" rx="3" fill="white"/>
</clipPath>
</defs>
</svg>
